{
  "accessors": [
    {
      "bufferView": 2,
      "componentType": 5126,
      "count": 9667,
      "max": [
        9.6874237060546875,
        109.39535522460938,
        17.20855712890625
      ],
      "min": [
        -9.6874055862426758,
        -109.39535522460938,
        -17.208547592163086
      ],
      "type": "VEC3"
    },
    {
      "bufferView": 2,
      "byteOffset": 116004,
      "componentType": 5126,
      "count": 9667,
      "max": [
        1,
        1,
        1
      ],
      "min": [
        -1,
        -1,
        -1
      ],
      "type": "VEC3"
    },
    {
      "bufferView": 3,
      "componentType": 5126,
      "count": 9667,
      "max": [
        0.41186103224754333,
        1,
        1,
        1
      ],
      "min": [
        -1,
        -1,
        -1,
        1
      ],
      "type": "VEC4"
    },
    {
      "bufferView": 1,
      "componentType": 5126,
      "count": 9667,
      "max": [
        0.98045367002487183,
        0.99000000953674316
      ],
      "min": [
        0.0099999997764825821,
        0.0099999997764825821
      ],
      "type": "VEC2"
    },
    {
      "bufferView": 0,
      "componentType": 5125,
      "count": 12726,
      "max": [
        9666
      ],
      "min": [
        0
      ],
      "type": "SCALAR"
    },
    {
      "bufferView": 2,
      "byteOffset": 232008,
      "componentType": 5126,
      "count": 5288,
      "max": [
        37.985370635986328,
        152.47561645507812,
        102.23008728027344
      ],
      "min": [
        -36.7340087890625,
        -74.468048095703125,
        60.398021697998047
      ],
      "type": "VEC3"
    },
    {
      "bufferView": 2,
      "byteOffset": 295464,
      "componentType": 5126,
      "count": 5288,
      "max": [
        1,
        1,
        1
      ],
      "min": [
        -1,
        -1,
        -1
      ],
      "type": "VEC3"
    },
    {
      "bufferView": 3,
      "byteOffset": 154672,
      "componentType": 5126,
      "count": 5288,
      "max": [
        1,
        1,
        1,
        1
      ],
      "min": [
        -1,
        -1,
        -1,
        1
      ],
      "type": "VEC4"
    },
    {
      "bufferView": 1,
      "byteOffset": 77336,
      "componentType": 5126,
      "count": 5288,
      "max": [
        0.9950600266456604,
        0.99501198530197144
      ],
      "min": [
        0.0041869999840855598,
        0.0041869999840855598
      ],
      "type": "VEC2"
    },
    {
      "bufferView": 0,
      "byteOffset": 50904,
      "componentType": 5125,
      "count": 24576,
      "max": [
        5287
      ],
      "min": [
        0
      ],
      "type": "SCALAR"
    },
    {
      "bufferView": 2,
      "byteOffset": 358920,
      "componentType": 5126,
      "count": 13260,
      "max": [
        56.754829406738281,
        77.218307495117188,
        66.235771179199219
      ],
      "min": [
        -57.649158477783203,
        -150.48341369628906,
        12.791020393371582
      ],
      "type": "VEC3"
    },
    {
      "bufferView": 2,
      "byteOffset": 518040,
      "componentType": 5126,
      "count": 13260,
      "max": [
        1,
        1,
        1
      ],
      "min": [
        -1,
        -1,
        -1
      ],
      "type": "VEC3"
    },
    {
      "bufferView": 3,
      "byteOffset": 239280,
      "componentType": 5126,
      "count": 13260,
      "max": [
        1,
        1,
        1,
        1
      ],
      "min": [
        -1,
        -1,
        -1,
        -1
      ],
      "type": "VEC4"
    },
    {
      "bufferView": 1,
      "byteOffset": 119640,
      "componentType": 5126,
      "count": 13260,
      "max": [
        0.99416100978851318,
        0.99410802125930786
      ],
      "min": [
        0.004246000200510025,
        0.004246000200510025
      ],
      "type": "VEC2"
    },
    {
      "bufferView": 0,
      "byteOffset": 149208,
      "componentType": 5125,
      "count": 53925,
      "max": [
        13259
      ],
      "min": [
        0
      ],
      "type": "SCALAR"
    },
    {
      "bufferView": 2,
      "byteOffset": 677160,
      "componentType": 5126,
      "count": 4105,
      "max": [
        24.606048583984375,
        277.86419677734375,
        43.709720611572266
      ],
      "min": [
        -24.606033325195312,
        -277.86419677734375,
        -43.709724426269531
      ],
      "type": "VEC3"
    },
    {
      "bufferView": 2,
      "byteOffset": 726420,
      "componentType": 5126,
      "count": 4105,
      "max": [
        1,
        1,
        1
      ],
      "min": [
        -1,
        -1,
        -1
      ],
      "type": "VEC3"
    },
    {
      "bufferView": 3,
      "byteOffset": 451440,
      "componentType": 5126,
      "count": 4105,
      "max": [
        1,
        1,
        1,
        -1
      ],
      "min": [
        -0.41122981905937195,
        -1,
        -1,
        -1
      ],
      "type": "VEC4"
    },
    {
      "bufferView": 1,
      "byteOffset": 225720,
      "componentType": 5126,
      "count": 4105,
      "max": [
        0.98045367002487183,
        0.99000000953674316
      ],
      "min": [
        0.0099999997764825821,
        0.0099999997764825821
      ],
      "type": "VEC2"
    },
    {
      "bufferView": 0,
      "byteOffset": 364908,
      "componentType": 5125,
      "count": 12726,
      "max": [
        4104
      ],
      "min": [
        0
      ],
      "type": "SCALAR"
    }
  ],
  "asset": {
    "extras": {
      "author": "RomanGurd (https://sketchfab.com/RomanGurd)",
      "license": "CC-BY-4.0 (http://creativecommons.org/licenses/by/4.0/)",
      "source": "https://sketchfab.com/3d-models/tank-t-34-01af3ca4a7bf41ebbd5f1986edeb77fd",
      "title": "Tank T-34"
    },
    "generator": "Sketchfab-8.59.0",
    "version": "2.0"
  },
  "bufferViews": [
    {
      "buffer": 0,
      "byteLength": 415812,
      "byteOffset": 0,
      "name": "floatBufferViews",
      "target": 34963
    },
    {
      "buffer": 0,
      "byteLength": 258560,
      "byteOffset": 415812,
      "byteStride": 8,
      "name": "floatBufferViews",
      "target": 34962
    },
    {
      "buffer": 0,
      "byteLength": 775680,
      "byteOffset": 674372,
      "byteStride": 12,
      "name": "floatBufferViews",
      "target": 34962
    },
    {
      "buffer": 0,
      "byteLength": 517120,
      "byteOffset": 1450052,
      "byteStride": 16,
      "name": "floatBufferViews",
      "target": 34962
    }
  ],
  "buffers": [
    {
      "byteLength": 1967172,
      "uri": "scene.bin"
    }
  ],
  "images": [
    {
      "uri": "textures/RELS_baseColor.png"
    },
    {
      "uri": "textures/RELS_metallicRoughness.png"
    },
    {
      "uri": "textures/RELS_normal.png"
    },
    {
      "uri": "textures/TOWER_baseColor.png"
    },
    {
      "uri": "textures/TOWER_metallicRoughness.png"
    },
    {
      "uri": "textures/TOWER_normal.png"
    },
    {
      "uri": "textures/BODY_baseColor.png"
    },
    {
      "uri": "textures/BODY_metallicRoughness.png"
    },
    {
      "uri": "textures/BODY_normal.png"
    }
  ],
  "materials": [
    {
      "doubleSided": true,
      "emissiveFactor": [
        0,
        0,
        0
      ],
      "name": "RELS",
      "normalTexture": {
        "index": 2,
        "scale": 1,
        "texCoord": 0
      },
      "occlusionTexture": {
        "index": 1,
        "strength": 0.81650786218973848,
        "texCoord": 0
      },
      "pbrMetallicRoughness": {
        "baseColorFactor": [
          1,
          1,
          1,
          1
        ],
        "baseColorTexture": {
          "index": 0,
          "texCoord": 0
        },
        "metallicFactor": 1,
        "metallicRoughnessTexture": {
          "index": 1,
          "texCoord": 0
        },
        "roughnessFactor": 1
      }
    },
    {
      "doubleSided": true,
      "emissiveFactor": [
        0,
        0,
        0
      ],
      "name": "TOWER",
      "normalTexture": {
        "index": 5,
        "scale": 1,
        "texCoord": 0
      },
      "occlusionTexture": {
        "index": 4,
        "strength": 1,
        "texCoord": 0
      },
      "pbrMetallicRoughness": {
        "baseColorFactor": [
          1,
          1,
          1,
          1
        ],
        "baseColorTexture": {
          "index": 3,
          "texCoord": 0
        },
        "metallicFactor": 1,
        "metallicRoughnessTexture": {
          "index": 4,
          "texCoord": 0
        },
        "roughnessFactor": 1
      }
    },
    {
      "doubleSided": true,
      "emissiveFactor": [
        0,
        0,
        0
      ],
      "name": "BODY",
      "normalTexture": {
        "index": 8,
        "scale": 1,
        "texCoord": 0
      },
      "occlusionTexture": {
        "index": 7,
        "strength": 1,
        "texCoord": 0
      },
      "pbrMetallicRoughness": {
        "baseColorFactor": [
          1,
          1,
          1,
          1
        ],
        "baseColorTexture": {
          "index": 6,
          "texCoord": 0
        },
        "metallicFactor": 1,
        "metallicRoughnessTexture": {
          "index": 7,
          "texCoord": 0
        },
        "roughnessFactor": 1
      }
    }
  ],
  "meshes": [
    {
      "name": "Rels_RELS_0",
      "primitives": [
        {
          "attributes": {
            "NORMAL": 1,
            "POSITION": 0,
            "TANGENT": 2,
            "TEXCOORD_0": 3
          },
          "indices": 4,
          "material": 0,
          "mode": 4
        }
      ]
    },
    {
      "name": "tower002_TOWER_0",
      "primitives": [
        {
          "attributes": {
            "NORMAL": 6,
            "POSITION": 5,
            "TANGENT": 7,
            "TEXCOORD_0": 8
          },
          "indices": 9,
          "material": 1,
          "mode": 4
        }
      ]
    },
    {
      "name": "0_0_Body001_BODY_0",
      "primitives": [
        {
          "attributes": {
            "NORMAL": 11,
            "POSITION": 10,
            "TANGENT": 12,
            "TEXCOORD_0": 13
          },
          "indices": 14,
          "material": 2,
          "mode": 4
        }
      ]
    },
    {
      "name": "Rels001_RELS_0",
      "primitives": [
        {
          "attributes": {
            "NORMAL": 16,
            "POSITION": 15,
            "TANGENT": 17,
            "TEXCOORD_0": 18
          },
          "indices": 19,
          "material": 0,
          "mode": 4
        }
      ]
    }
  ],
  "nodes": [
    {
      "children": [
        1
      ],
      "name": "RootNode (gltf orientation matrix)",
      "rotation": [
        -0.70710678118654746,
        -0,
        -0,
        0.70710678118654757
      ]
    },
    {
      "children": [
        2
      ],
      "matrix": [
        0.0084802154451608658,
        0,
        0,
        0,
        0,
        0.0084802154451608658,
        0,
        0,
        0,
        0,
        0.0084802154451608658,
        0,
        0,
        0,
        0,
        1
      ],
      "name": "RootNode (model correction matrix)"
    },
    {
      "children": [
        3
      ],
      "matrix": [
        1,
        0,
        0,
        0,
        0,
        0,
        1,
        0,
        0,
        -1,
        0,
        0,
        0,
        0,
        0,
        1
      ],
      "name": "f37033fb3739453a947e7775c35edc70.fbx"
    },
    {
      "children": [
        4,
        6,
        8,
        10
      ],
      "name": "RootNode"
    },
    {
      "children": [
        5
      ],
      "matrix": [
        2.5399999618530273,
        0,
        0,
        0,
        0,
        5.6399328803925005e-16,
        -2.5399999618530273,
        0,
        0,
        2.5399999618530273,
        5.6399328803925005e-16,
        0,
        -123.14712524414062,
        46.500595092773438,
        54.687019348144531,
        1
      ],
      "name": "Rels"
    },
    {
      "mesh": 0,
      "name": "Rels_RELS_0"
    },
    {
      "children": [
        7
      ],
      "matrix": [
        2.5399999618530273,
        0,
        0,
        0,
        0,
        5.6399328803925005e-16,
        -2.5399999618530273,
        0,
        0,
        2.5399999618530273,
        5.6399328803925005e-16,
        0,
        0.53226852416992188,
        0,
        -49.690437316894531,
        1
      ],
      "name": "tower002"
    },
    {
      "mesh": 1,
      "name": "tower002_TOWER_0"
    },
    {
      "children": [
        9
      ],
      "matrix": [
        2.5399999618530273,
        0,
        0,
        0,
        0,
        5.6399328803925005e-16,
        -2.5399999618530273,
        0,
        0,
        2.5399999618530273,
        5.6399328803925005e-16,
        0,
        0.53226852416992188,
        0,
        -49.690437316894531,
        1
      ],
      "name": "0_0_Body001"
    },
    {
      "mesh": 2,
      "name": "0_0_Body001_BODY_0"
    },
    {
      "children": [
        11
      ],
      "matrix": [
        1,
        0,
        0,
        0,
        0,
        2.2204460492503131e-16,
        -1,
        0,
        0,
        1,
        2.2204460492503131e-16,
        0,
        121.57456207275391,
        46.5006103515625,
        54.687019348144531,
        1
      ],
      "name": "Rels001"
    },
    {
      "mesh": 3,
      "name": "Rels001_RELS_0"
    }
  ],
  "samplers": [
    {
      "magFilter": 9729,
      "minFilter": 9987,
      "wrapS": 10497,
      "wrapT": 10497
    }
  ],
  "scene": 0,
  "scenes": [
    {
      "name": "OSG_Scene",
      "nodes": [
        0
      ]
    }
  ],
  "textures": [
    {
      "sampler": 0,
      "source": 0
    },
    {
      "sampler": 0,
      "source": 1
    },
    {
      "sampler": 0,
      "source": 2
    },
    {
      "sampler": 0,
      "source": 3
    },
    {
      "sampler": 0,
      "source": 4
    },
    {
      "sampler": 0,
      "source": 5
    },
    {
      "sampler": 0,
      "source": 6
    },
    {
      "sampler": 0,
      "source": 7
    },
    {
      "sampler": 0,
      "source": 8
    }
  ]
}

